<svg viewBox="0 0 32 32" xmlns="http://www.w3.org/2000/svg" xmlns:xlink="http://www.w3.org/1999/xlink" width="32" height="32" fill="none" clip-path="url(#clipPath_5)" customFrame="url(#clipPath_5)">
	<defs>
		<clipPath id="clipPath_5">
			<rect width="32" height="32" x="0" y="0" rx="2" fill="rgb(255,255,255)" />
		</clipPath>
	</defs>
	<rect id="照片" width="32" height="32" x="0" y="0" rx="2" />
	<path id="矢量 322" d="M27.3999 6.66675L5.3999 6.66675L5.3999 26.6668L27.3999 26.6668L27.3999 6.66675ZM11.8996 17.6636L7.40007 22.1623L7.40007 8.66691L25.3997 8.66691L25.3997 22.2805L17.3995 16.1641L14.3995 19.6631L11.8996 17.6636ZM11.6489 15.6641C10.6826 15.6641 9.89904 14.8808 9.89904 13.9143C9.89904 12.9478 10.6826 12.1644 11.6489 12.1644C12.6156 12.1644 13.3992 12.9478 13.3992 13.9143C13.3992 14.8808 12.6156 15.6641 11.6489 15.6641ZM11.399 13.914C11.399 13.7759 11.511 13.664 11.6489 13.664C11.7873 13.664 11.8992 13.7761 11.8992 13.914C11.8992 14.0524 11.7873 14.1643 11.6489 14.1643C11.511 14.1643 11.399 14.0522 11.399 13.914Z" fill="rgb(91,96,114)" fill-rule="evenodd" />
</svg>
