<?xml version="1.0" encoding="utf-8"?>
<!-- Generator: Adobe Illustrator 17.0.0, SVG Export Plug-In . SVG Version: 6.00 Build 0)  -->
<!DOCTYPE svg PUBLIC "-//W3C//DTD SVG 1.1//EN" "http://www.w3.org/Graphics/SVG/1.1/DTD/svg11.dtd">
<svg version="1.1" id="图层_1" xmlns="http://www.w3.org/2000/svg" xmlns:xlink="http://www.w3.org/1999/xlink" x="0px" y="0px"
	 width="24px" height="24px" viewBox="0 0 24 24" enable-background="new 0 0 24 24" xml:space="preserve">
<g>
	<rect x="16.615" y="22.154"  width="1.846" height="1.846"/>
	<rect x="20.308" y="22.154"  width="1.846" height="1.846"/>
	<rect x="22.154" y="22.154"  width="1.846" height="1.846"/>
	<rect x="12.923" y="22.154"  width="1.846" height="1.846"/>
	<rect x="9.231" y="22.154"  width="1.846" height="1.846"/>
	<rect x="5.538" y="22.154"  width="1.846" height="1.846"/>
	<rect y="16.615"  width="1.846" height="1.846"/>
	<rect y="20.308"  width="1.846" height="1.846"/>
	<rect y="22.154"  width="1.846" height="1.846"/>
	<rect x="1.846" y="22.154"  width="1.846" height="1.846"/>
	<rect x="22.154" y="16.615"  width="1.846" height="1.846"/>
	<rect x="22.154" y="20.308"  width="1.846" height="1.846"/>
	<rect y="12.923"  width="1.846" height="1.846"/>
	<rect x="22.154" y="12.923"  width="1.846" height="1.846"/>
	<rect y="9.231"  width="1.846" height="1.846"/>
	<rect x="22.154" y="9.231"  width="1.846" height="1.846"/>
	<rect y="5.538"  width="1.846" height="1.846"/>
	<rect x="22.154" y="5.538"  width="1.846" height="1.846"/>
	<rect x="22.154" y="1.846"  width="1.846" height="1.846"/>
	<rect x="16.615"  width="1.846" height="1.846"/>
	<rect x="20.308"  width="1.846" height="1.846"/>
	<rect x="22.154"  width="1.846" height="1.846"/>
	<rect x="12.923"  width="1.846" height="1.846"/>
	<rect x="9.231"  width="1.846" height="1.846"/>
	<rect x="5.538"  width="1.846" height="1.846"/>
	<rect  width="1.846" height="1.846"/>
	<rect x="1.846"  width="1.846" height="1.846"/>
	<rect y="1.846"  width="1.846" height="1.846"/>
</g>
</svg>
