<svg width="32.000000" height="32.000000" viewBox="0 0 32 32" fill="none" xmlns="http://www.w3.org/2000/svg" xmlns:xlink="http://www.w3.org/1999/xlink">
	<desc>
			Created with Pixso.
	</desc>
	<defs>
		<clipPath id="clip897_49292">
			<rect id="svg" width="22.400002" height="22.400002" transform="translate(4.333252 4.799805)" fill="white" fill-opacity="0"/>
		</clipPath>
		<clipPath id="clip897_49293">
			<rect id="icon/16/麦克风" rx="2.000000" width="32.000000" height="32.000000" fill="white" fill-opacity="0"/>
		</clipPath>
	</defs>
	<rect id="icon/16/麦克风" rx="2.000000" width="32.000000" height="32.000000" fill="#5B6072" fill-opacity="0"/>
	<g clip-path="url(#clip897_49293)">
		<g clip-path="url(#clip897_49292)">
			<path id="path" d="M15.53 5.73C18.11 5.73 20.19 7.82 20.19 10.39L20.19 14.13C20.19 16.71 18.11 18.79 15.53 18.79C12.95 18.79 10.86 16.71 10.86 14.13L10.86 10.39C10.86 7.82 12.95 5.73 15.53 5.73ZM7.18 15.06L9.06 15.06C9.51 18.23 12.24 20.66 15.53 20.66C18.82 20.66 21.54 18.23 22 15.06L23.88 15.06C23.45 18.95 20.35 22.05 16.46 22.48L16.46 26.26L14.59 26.26L14.59 22.48C10.7 22.05 7.61 18.95 7.18 15.06Z" fill="#5B6072" fill-opacity="1.000000" fill-rule="nonzero"/>
			<path id="path" d="" fill="#979797" fill-opacity="0" fill-rule="evenodd"/>
		</g>
	</g>
</svg>
