<svg xmlns="http://www.w3.org/2000/svg" xmlns:xlink="http://www.w3.org/1999/xlink" width="24" height="24" viewBox="0 0 24 24" fill="none"><circle cx="12" cy="12" r="12"   fill="#F2F7FF" ></circle><path d="M7.92 5.875L16.08 5.875C16.7244 5.875 17.25 6.40067 17.25 7.045L17.25 17.545C17.25 18.1893 16.7244 18.705 16.08 18.705L7.92 18.705C7.27567 18.705 6.75 18.1893 6.75 17.545L6.75 7.045C6.75 6.40067 7.27567 5.875 7.92 5.875Z" fill-rule="evenodd"  fill="url(#linear_fill_1099_463)" ></path><path d="M14.3334 8.49997L10.8334 8.49997Q10.7759 8.49997 10.7196 8.51118Q10.6632 8.52238 10.6101 8.54437Q10.5571 8.56635 10.5093 8.59827Q10.4615 8.63019 10.4209 8.67082Q10.3803 8.71144 10.3484 8.75921Q10.3164 8.80698 10.2945 8.86006Q10.2725 8.91314 10.2613 8.96949Q10.2501 9.02584 10.2501 9.08329Q10.2501 9.14075 10.2613 9.1971Q10.2725 9.25344 10.2945 9.30652Q10.3164 9.3596 10.3484 9.40737Q10.3803 9.45514 10.4209 9.49577Q10.4615 9.5364 10.5093 9.56832Q10.5571 9.60023 10.6101 9.62222Q10.6632 9.64421 10.7196 9.65542Q10.7759 9.66662 10.8334 9.66662L14.3334 9.66662Q14.3908 9.66662 14.4472 9.65542Q14.5035 9.64421 14.5566 9.62222Q14.6097 9.60023 14.6574 9.56831Q14.7052 9.5364 14.7458 9.49577Q14.7865 9.45514 14.8184 9.40737Q14.8503 9.3596 14.8723 9.30652Q14.8943 9.25344 14.9055 9.1971Q14.9167 9.14075 14.9167 9.08329Q14.9167 9.02584 14.9055 8.96949Q14.8943 8.91314 14.8723 8.86006Q14.8503 8.80698 14.8184 8.75921Q14.7865 8.71144 14.7458 8.67082Q14.7052 8.63019 14.6574 8.59827Q14.6097 8.56635 14.5566 8.54437Q14.5035 8.52238 14.4472 8.51117Q14.3908 8.49997 14.3334 8.49997ZM9.66662 9.08331C9.66662 9.40547 9.40547 9.66662 9.08331 9.66662C8.76115 9.66662 8.5 9.40547 8.5 9.08331C8.5 8.76115 8.76115 8.5 9.08331 8.5C9.40547 8.5 9.66662 8.76115 9.66662 9.08331ZM14.3334 11.4166L10.8334 11.4166Q10.7759 11.4166 10.7196 11.4279Q10.6632 11.4391 10.6101 11.461Q10.5571 11.483 10.5093 11.515Q10.4615 11.5469 10.4209 11.5875Q10.3803 11.6281 10.3484 11.6759Q10.3164 11.7237 10.2945 11.7767Q10.2725 11.8298 10.2613 11.8862Q10.2501 11.9425 10.2501 12Q10.2501 12.0574 10.2613 12.1138Q10.2725 12.1701 10.2945 12.2232Q10.3164 12.2763 10.3484 12.324Q10.3803 12.3718 10.4209 12.4124Q10.4615 12.4531 10.5093 12.485Q10.5571 12.5169 10.6101 12.5389Q10.6632 12.5609 10.7196 12.5721Q10.7759 12.5833 10.8334 12.5833L14.3334 12.5833Q14.3908 12.5833 14.4472 12.5721Q14.5035 12.5609 14.5566 12.5389Q14.6097 12.5169 14.6574 12.485Q14.7052 12.4531 14.7458 12.4124Q14.7865 12.3718 14.8184 12.324Q14.8503 12.2763 14.8723 12.2232Q14.8943 12.1701 14.9055 12.1138Q14.9167 12.0574 14.9167 12Q14.9167 11.9425 14.9055 11.8862Q14.8943 11.8298 14.8723 11.7767Q14.8503 11.7237 14.8184 11.6759Q14.7865 11.6281 14.7458 11.5875Q14.7052 11.5469 14.6574 11.515Q14.6097 11.483 14.5566 11.461Q14.5035 11.4391 14.4472 11.4279Q14.3908 11.4166 14.3334 11.4166ZM9.08331 12.5833C9.40547 12.5833 9.66662 12.3221 9.66662 12C9.66662 11.6778 9.40547 11.4167 9.08331 11.4167C8.76115 11.4167 8.5 11.6778 8.5 12C8.5 12.3221 8.76115 12.5833 9.08331 12.5833ZM14.3334 14.3333L10.8334 14.3333Q10.7759 14.3333 10.7196 14.3445Q10.6632 14.3557 10.6101 14.3777Q10.5571 14.3997 10.5093 14.4316Q10.4615 14.4635 10.4209 14.5042Q10.3803 14.5448 10.3484 14.5926Q10.3164 14.6403 10.2945 14.6934Q10.2725 14.7465 10.2613 14.8028Q10.2501 14.8592 10.2501 14.9166Q10.2501 14.9741 10.2613 15.0304Q10.2725 15.0868 10.2945 15.1399Q10.3164 15.193 10.3484 15.2407Q10.3803 15.2885 10.4209 15.3291Q10.4615 15.3697 10.5093 15.4017Q10.5571 15.4336 10.6101 15.4556Q10.6632 15.4776 10.7196 15.4888Q10.7759 15.5 10.8334 15.5L14.3334 15.5Q14.3908 15.5 14.4472 15.4888Q14.5035 15.4776 14.5566 15.4556Q14.6097 15.4336 14.6574 15.4017Q14.7052 15.3697 14.7458 15.3291Q14.7865 15.2885 14.8184 15.2407Q14.8503 15.193 14.8723 15.1399Q14.8943 15.0868 14.9055 15.0304Q14.9167 14.9741 14.9167 14.9166Q14.9167 14.8592 14.9055 14.8028Q14.8943 14.7465 14.8723 14.6934Q14.8503 14.6403 14.8184 14.5926Q14.7865 14.5448 14.7458 14.5042Q14.7052 14.4635 14.6574 14.4316Q14.6097 14.3997 14.5566 14.3777Q14.5035 14.3557 14.4472 14.3445Q14.3908 14.3333 14.3334 14.3333ZM9.08331 15.5C9.40547 15.5 9.66662 15.2388 9.66662 14.9167C9.66662 14.5945 9.40547 14.3334 9.08331 14.3334C8.76115 14.3334 8.5 14.5945 8.5 14.9167C8.5 15.2388 8.76115 15.5 9.08331 15.5Z" fill-rule="evenodd"  fill="#FFFFFF" ></path><defs><linearGradient id="linear_fill_1099_463" x1="13.3955078125" y1="17.270492553710938" x2="8.8740234375" y2="5.3848876953125" gradientUnits="userSpaceOnUse"><stop offset="0" stop-color="#2196FE"  /><stop offset="1" stop-color="#60B4FF"  /></linearGradient></defs></svg>